<svg style="display: none"
    xmlns="http://www.w3.org/2000/svg">
    <symbol id="icon-house" class="icon icon-immo" viewBox="0 0 64 64">
        <title>House</title>
        <path class="path--color1" fill-rule="evenodd" clip-rule="evenodd" d="M40.027,49.989c2.737,0,5.32,0,8.065,0c0-6.725,0-12.453,0-19.457
		c1.403,1.096,2.595,1.984,3.725,2.945c0.228,0.193,0.306,0.663,0.308,1.007c0.018,6.012,0.021,11.025,0.008,17.04
		c-0.004,1.776-0.783,2.533-2.568,2.54c-3.683,0.012-7.365,0.015-11.049-0.003c-1.706-0.007-2.475-0.782-2.49-2.493
		c-0.027-2.366,0.021-4.734-0.046-7.102c-0.05-1.688-1.147-3.083-2.643-3.58c-1.582-0.525-3.409-0.107-4.36,1.265
		c-0.521,0.752-0.852,1.769-0.906,2.688c-0.128,2.172-0.035,4.357-0.045,6.536c-0.008,1.931-0.745,2.685-2.647,2.69
		c-3.608,0.009-7.216,0.009-10.824,0c-1.921-0.005-2.634-0.728-2.638-2.687c-0.008-5.938-0.018-10.876,0.027-16.813
		c0.004-0.473,0.311-1.064,0.669-1.388c0.969-0.876,2.041-1.637,3.245-2.578c0,6.871,0,12.561,0,19.345c2.738,0,5.348,0,8.139,0
		c0-1.694,0.015-3.443-0.004-5.191c-0.027-2.54,0.982-4.6,2.908-6.2c2.486-2.066,5.322-2.434,8.239-1.211
		c2.983,1.252,4.64,3.65,4.864,6.889C40.131,46.098,40.027,47.981,40.027,49.989z"/>
        <path class="path--color2" fill-rule="evenodd" clip-rule="evenodd" d="M31.989,14.561c-3.655,2.873-7.286,5.728-10.916,8.583
		c-4.31,3.39-8.618,6.782-12.928,10.175c-1.176,0.926-2.476,0.932-3.207,0.022c-0.711-0.884-0.437-2.244,0.7-3.151
		c2.729-2.182,5.497-4.316,8.2-6.527c0.389-0.319,0.707-0.969,0.717-1.471c0.063-3.23,0.026-6.463,0.035-9.694
		c0.005-1.801,0.729-2.537,2.52-2.557c1.465-0.019,2.932-0.021,4.396,0c1.733,0.022,2.471,0.763,2.492,2.478
		C24.011,13.426,24,14.435,24,15.621c0.362-0.231,0.605-0.362,0.821-0.53c1.924-1.504,3.837-3.021,5.767-4.519
		c1.082-0.842,1.767-0.863,2.834-0.025c8.305,6.516,16.6,13.043,24.896,19.569c0.178,0.138,0.352,0.286,0.498,0.455
		c0.773,0.892,0.849,2.169,0.181,2.876c-0.706,0.747-1.908,0.793-2.864,0.052c-2.197-1.705-4.373-3.436-6.557-5.154
		c-5.609-4.414-11.217-8.828-16.828-13.239C32.516,14.922,32.27,14.76,31.989,14.561z M18.727,14.011c0,1.947,0,3.847,0,5.745
		c0.558-0.323,1.146-0.72,1.182-1.159c0.12-1.515,0.047-3.045,0.047-4.586C19.463,14.011,19.103,14.011,18.727,14.011z"/>
    </symbol>
    <symbol id="icon-flat" class="icon icon-immo" viewBox="0 0 64 64">
        <title>Flat</title>
        <path class="path--color1" d="M50.324,24.181C45.268,24.221,40.156,24,35.101,24C34.681,24,34,24,34,24s0-0.486,0-0.867
		c0-3.596-0.179-7.09-0.125-10.684C33.892,11.367,33.489,10,32.589,10c-6.765,0-13.532,0-20.298,0c-0.973,0-1.293,1.252-1.29,2.365
		C11.028,24.68,11.029,37.106,11,49.423C10.997,50.537,11.322,51,12.291,52C25.824,52,39,52,53,52c0-9,0-17.719,0-26.396
		C52,24.627,51.444,24.172,50.324,24.181z M30,48c-5,0-10,0-15,0c0-11,0-23,0-35c5,0,10,0,15,0C30,25,30,36,30,48z M49,36
		C49,36,49.109,36,49,36v4c0.091,0,0,0,0,0c0,3,0,5,0,8c-1,0-3,0-5,0c0,0,0,0.018,0,0h-3c0,0.047,0,0,0,0c-3,0-5,0-7,0
		c0-7,0-13,0-20c5,0,10,0,15,0C49,31,49,33,49,36z"/>
        <path class="path--color2" d="M24.074,40.643c-0.083-0.99-0.788-1.62-1.745-1.618c-0.958,0-1.684,0.645-1.737,1.638
		c-0.049,0.918-0.052,1.847,0.014,2.761c0.064,0.896,0.856,1.556,1.728,1.554c0.869-0.001,1.633-0.685,1.73-1.575
		C24.112,42.946,24.071,43,24.071,42c0.004,0,0.007,0,0.01,0C24.081,42,24.112,41.1,24.074,40.643z"/>
        <path class="path--color2" d="M22.291,22.42c0.914,0.037,1.654-0.576,1.766-1.482c0.056-0.453,0.01-0.918,0.009-1.378
		c-0.002-0.53,0.06-1.069-0.014-1.589c-0.135-0.938-0.78-1.406-1.681-1.477c-0.866-0.07-1.694,0.612-1.757,1.501
		c-0.071,0.985-0.089,1.986,0.008,2.967C20.714,21.889,21.356,22.382,22.291,22.42z"/>
        <path class="path--color2" d="M24.071,29.477c-0.09-0.979-0.817-1.691-1.769-1.678c-0.907,0.013-1.638,0.595-1.7,1.521
		c-0.062,0.916-0.061,1.823-0.006,2.739c0.057,0.957,0.855,1.64,1.763,1.623c0.913-0.019,1.642-0.579,1.719-1.548
		C24.11,31.711,24.083,31,24.083,31c-0.001,0-0.004,0-0.005,0C24.078,30,24.112,29.932,24.071,29.477z"/>
        <path class="path--color2" d="M39.762,36.268c1.789,0.002,2.298,0.57,2.3,2.357c0.005,3.084-0.062,6.17-0.062,9.375H39
		c0-2.745,0-5,0-8c-2,0-4,0-5,0v-3.734C36,36.266,37.813,36.264,39.762,36.268z"/>
    </symbol>
    <symbol id="icon-city" class="icon icon-immo" viewBox="0 0 64 64">
        <title>City</title>
        <path class="path--color1" d="M18,44.9c1.025-2.959,3.04-4.99,5.87-6.258c1.402-0.629,2.516-0.369,2.98,0.703
		c0.454,1.05-0.053,1.92-1.344,2.654c-0.964,0.549-1.947,1.148-2.719,1.93c-1.458,1.472-1.405,3.129,0.014,4.654
		c1.564,1.682,3.607,2.459,5.8,2.884c3.575,0.694,7.07,0.448,10.347-1.237c1.654-0.852,3.297-1.932,3.255-4.074
		c-0.041-2.062-1.661-3.061-3.267-3.928c-1.811-0.979-2.371-1.887-1.755-3.012c0.607-1.113,1.748-1.175,3.539-0.273
		C43.279,40.232,45.012,42.23,46,44.9c0,0.808,0,1.615,0,2.424c-1.151,4.026-4.137,6.07-7.882,7.292
		c-2.856,0.933-5.802,1.152-8.744,0.743C24.334,54.656,19.96,52.86,18,47.594C18,46.695,18,45.798,18,44.9z"/>
        <path class="path--color2" d="M30.161,43.406c0.024,0.637,0.353,1.453,0.824,1.827c0.412,0.326,1.439,0.416,1.812,0.123
		c0.54-0.427,1.021-1.285,1.032-1.968c0.085-4.973,0.066-9.947,0.027-14.922c-0.007-0.852,0.225-1.204,1.077-1.486
		c4.772-1.574,7.492-6.417,6.36-11.15c-1.077-4.5-5.082-7.568-9.633-7.378c-4.562,0.19-8.389,3.534-9.059,7.913
		c-0.718,4.704,1.854,9.074,6.358,10.562c0.985,0.324,1.199,0.768,1.18,1.691c-0.052,2.42-0.018,4.84-0.018,7.26
		C30.124,38.389,30.07,40.9,30.161,43.406z"/>
    </symbol>
    <symbol id="icon-surface" class="icon icon-immo" viewBox="0 0 64 64">
        <title>Surface</title>
        <path class="path--color1" fill-rule="evenodd" clip-rule="evenodd" d="M40.936,44.852c1.171,0,2.279,0.003,3.387,0
			c1.879-0.004,2.518-0.645,2.523-2.565c0.008-2.642,0.003-5.284,0.003-7.925c0-4.838,0.002-9.674-0.003-14.512
			c-0.002-2.082-0.653-2.725-2.746-2.727c-7.479-0.002-14.957-0.002-22.436,0c-2.059,0.002-2.686,0.621-2.688,2.639
			c-0.001,1.072,0,2.143,0,3.285c-1.341,0-2.586,0-4.112,0c0.128-1.933,0.024-3.887,0.438-5.726
			c0.565-2.522,2.863-4.138,5.693-4.159c7.925-0.061,15.85-0.07,23.774,0c3.433,0.029,5.661,2.256,6.003,5.676
			c0.034,0.334,0.051,0.669,0.051,1.002c0.004,7.517,0.014,15.033-0.003,22.549c-0.007,3.527-2.213,6.196-5.36,6.424
			c-1.476,0.107-2.966,0.019-4.523,0.019C40.936,47.526,40.936,46.279,40.936,44.852z"/>
        <path class="path--color2" fill-rule="evenodd" clip-rule="evenodd" d="M36.383,48.143
			c0.729-0.765,0.725-1.77-0.019-2.531c-2.228-2.282-4.52-4.502-6.671-6.633c-0.95,0.902-1.877,1.783-2.967,2.816
			c1.017,0.98,2.022,1.951,3.107,2.999c-0.279,0.022-0.483,0.056-0.689,0.056c-2.679,0.004-5.357,0.012-8.037-0.002
			c-1.389-0.006-2.112-0.725-2.125-2.14c-0.021-2.344-0.007-4.688-0.007-7.032c0-0.531,0-1.064,0-1.597
			c0.11-0.052,0.222-0.104,0.332-0.157c0.974,1.052,1.947,2.103,2.927,3.161c0.98-0.986,1.861-1.872,2.729-2.746
			c-2.219-2.257-4.391-4.546-6.656-6.738c-0.897-0.868-2.046-0.664-3.072,0.35c-1.88,1.855-3.743,3.729-5.609,5.599
			c-0.25,0.25-0.481,0.521-0.532,0.576c0.935,1.018,1.782,1.939,2.907,3.162c0.942-1.085,1.879-2.162,2.973-3.424
			c0,3.182-0.028,6.078,0.008,8.975c0.045,3.518,2.597,5.998,6.117,6.004c2.604,0.006,5.209,0,7.812,0.004
			c0.307,0.002,0.615,0.044,0.921,0.066c0.065,0.107,0.13,0.216,0.195,0.323c-1.073,0.963-2.147,1.927-3.22,2.89
			c0.965,0.982,1.844,1.875,2.82,2.867C31.903,52.691,34.178,50.45,36.383,48.143z"/>
    </symbol>
</svg>