<?xml version="1.0" encoding="utf-8"?>
<!-- Generator: Adobe Illustrator 16.0.0, SVG Export Plug-In . SVG Version: 6.00 Build 0)  -->
<!DOCTYPE svg PUBLIC "-//W3C//DTD SVG 1.1//EN" "http://www.w3.org/Graphics/SVG/1.1/DTD/svg11.dtd">
<svg version="1.1" id="Layer_1" xmlns="http://www.w3.org/2000/svg" xmlns:xlink="http://www.w3.org/1999/xlink" x="0px" y="0px"
	 width="64px" height="64px" viewBox="0 0 64 64" enable-background="new 0 0 64 64" xml:space="preserve">
<g opacity="0.8">
	<path fill-rule="evenodd" clip-rule="evenodd" fill="#EC5C55" d="M40.027,49.989c2.737,0,5.32,0,8.065,0c0-6.725,0-12.453,0-19.457
		c1.403,1.096,2.595,1.984,3.725,2.945c0.228,0.193,0.306,0.663,0.308,1.007c0.018,6.012,0.021,11.025,0.008,17.04
		c-0.004,1.776-0.783,2.533-2.568,2.54c-3.683,0.012-7.365,0.015-11.049-0.003c-1.706-0.007-2.475-0.782-2.49-2.493
		c-0.027-2.366,0.021-4.734-0.046-7.102c-0.05-1.688-1.147-3.083-2.643-3.58c-1.582-0.525-3.409-0.107-4.36,1.265
		c-0.521,0.752-0.852,1.769-0.906,2.688c-0.128,2.172-0.035,4.357-0.045,6.536c-0.008,1.931-0.745,2.685-2.647,2.69
		c-3.608,0.009-7.216,0.009-10.824,0c-1.921-0.005-2.634-0.728-2.638-2.687c-0.008-5.938-0.018-10.876,0.027-16.813
		c0.004-0.473,0.311-1.064,0.669-1.388c0.969-0.876,2.041-1.637,3.245-2.578c0,6.871,0,12.561,0,19.345c2.738,0,5.348,0,8.139,0
		c0-1.694,0.015-3.443-0.004-5.191c-0.027-2.54,0.982-4.6,2.908-6.2c2.486-2.066,5.322-2.434,8.239-1.211
		c2.983,1.252,4.64,3.65,4.864,6.889C40.131,46.098,40.027,47.981,40.027,49.989z"/>
	<path fill-rule="evenodd" clip-rule="evenodd" fill="#EC5C55" d="M31.989,14.561c-3.655,2.873-7.286,5.728-10.916,8.583
		c-4.31,3.39-8.618,6.782-12.928,10.175c-1.176,0.926-2.476,0.932-3.207,0.022c-0.711-0.884-0.437-2.244,0.7-3.151
		c2.729-2.182,5.497-4.316,8.2-6.527c0.389-0.319,0.707-0.969,0.717-1.471c0.063-3.23,0.026-6.463,0.035-9.694
		c0.005-1.801,0.729-2.537,2.52-2.557c1.465-0.019,2.932-0.021,4.396,0c1.733,0.022,2.471,0.763,2.492,2.478
		C24.011,13.426,24,14.435,24,15.621c0.362-0.231,0.605-0.362,0.821-0.53c1.924-1.504,3.837-3.021,5.767-4.519
		c1.082-0.842,1.767-0.863,2.834-0.025c8.305,6.516,16.6,13.043,24.896,19.569c0.178,0.138,0.352,0.286,0.498,0.455
		c0.773,0.892,0.849,2.169,0.181,2.876c-0.706,0.747-1.908,0.793-2.864,0.052c-2.197-1.705-4.373-3.436-6.557-5.154
		c-5.609-4.414-11.217-8.828-16.828-13.239C32.516,14.922,32.27,14.76,31.989,14.561z M18.727,14.011c0,1.947,0,3.847,0,5.745
		c0.558-0.323,1.146-0.72,1.182-1.159c0.12-1.515,0.047-3.045,0.047-4.586C19.463,14.011,19.103,14.011,18.727,14.011z"/>
</g>
</svg>
