<?xml version="1.0" encoding="utf-8"?>
<!-- Generator: Adobe Illustrator 16.0.0, SVG Export Plug-In . SVG Version: 6.00 Build 0)  -->
<!DOCTYPE svg PUBLIC "-//W3C//DTD SVG 1.1//EN" "http://www.w3.org/Graphics/SVG/1.1/DTD/svg11.dtd">
<svg version="1.1" id="Layer_1" xmlns="http://www.w3.org/2000/svg" xmlns:xlink="http://www.w3.org/1999/xlink" x="0px" y="0px"
	 width="64px" height="64px" viewBox="0 0 64 64" enable-background="new 0 0 64 64" xml:space="preserve">
<g>
	<path opacity="0.8" fill="#EC5C55" d="M50.324,24.181C45.268,24.221,40.156,24,35.101,24C34.681,24,34,24,34,24s0-0.486,0-0.867
		c0-3.596-0.179-7.09-0.125-10.684C33.892,11.367,33.489,10,32.589,10c-6.765,0-13.532,0-20.298,0c-0.973,0-1.293,1.252-1.29,2.365
		C11.028,24.68,11.029,37.106,11,49.423C10.997,50.537,11.322,51,12.291,52C25.824,52,39,52,53,52c0-9,0-17.719,0-26.396
		C52,24.627,51.444,24.172,50.324,24.181z M30,48c-5,0-10,0-15,0c0-11,0-23,0-35c5,0,10,0,15,0C30,25,30,36,30,48z M49,36
		C49,36,49.109,36,49,36v4c0.091,0,0,0,0,0c0,3,0,5,0,8c-1,0-3,0-5,0c0,0,0,0.018,0,0h-3c0,0.047,0,0,0,0c-3,0-5,0-7,0
		c0-7,0-13,0-20c5,0,10,0,15,0C49,31,49,33,49,36z"/>
	<path fill="#EC5C55" d="M24.074,40.643c-0.083-0.99-0.788-1.62-1.745-1.618c-0.958,0-1.684,0.645-1.737,1.638
		c-0.049,0.918-0.052,1.847,0.014,2.761c0.064,0.896,0.856,1.556,1.728,1.554c0.869-0.001,1.633-0.685,1.73-1.575
		C24.112,42.946,24.071,43,24.071,42c0.004,0,0.007,0,0.01,0C24.081,42,24.112,41.1,24.074,40.643z"/>
	<path fill="#EC5C55" d="M22.291,22.42c0.914,0.037,1.654-0.576,1.766-1.482c0.056-0.453,0.01-0.918,0.009-1.378
		c-0.002-0.53,0.06-1.069-0.014-1.589c-0.135-0.938-0.78-1.406-1.681-1.477c-0.866-0.07-1.694,0.612-1.757,1.501
		c-0.071,0.985-0.089,1.986,0.008,2.967C20.714,21.889,21.356,22.382,22.291,22.42z"/>
	<path fill="#EC5C55" d="M24.071,29.477c-0.09-0.979-0.817-1.691-1.769-1.678c-0.907,0.013-1.638,0.595-1.7,1.521
		c-0.062,0.916-0.061,1.823-0.006,2.739c0.057,0.957,0.855,1.64,1.763,1.623c0.913-0.019,1.642-0.579,1.719-1.548
		C24.11,31.711,24.083,31,24.083,31c-0.001,0-0.004,0-0.005,0C24.078,30,24.112,29.932,24.071,29.477z"/>
	<path opacity="0.8" fill="#EC5C55" d="M39.762,36.268c1.789,0.002,2.298,0.57,2.3,2.357c0.005,3.084-0.062,6.17-0.062,9.375H39
		c0-2.745,0-5,0-8c-2,0-4,0-5,0v-3.734C36,36.266,37.813,36.264,39.762,36.268z"/>
</g>
</svg>
