<?xml version="1.0" encoding="utf-8"?>
<!-- Generator: Adobe Illustrator 16.0.0, SVG Export Plug-In . SVG Version: 6.00 Build 0)  -->
<!DOCTYPE svg PUBLIC "-//W3C//DTD SVG 1.1//EN" "http://www.w3.org/Graphics/SVG/1.1/DTD/svg11.dtd">
<svg version="1.1" id="Layer_1" xmlns="http://www.w3.org/2000/svg" xmlns:xlink="http://www.w3.org/1999/xlink" x="0px" y="0px"
	 width="64px" height="64px" viewBox="0 0 64 64" enable-background="new 0 0 64 64" xml:space="preserve">
<g>
	<path opacity="0.8" fill="#EC5C55" d="M18,44.9c1.025-2.959,3.04-4.99,5.87-6.258c1.402-0.629,2.516-0.369,2.98,0.703
		c0.454,1.05-0.053,1.92-1.344,2.654c-0.964,0.549-1.947,1.148-2.719,1.93c-1.458,1.472-1.405,3.129,0.014,4.654
		c1.564,1.682,3.607,2.459,5.8,2.884c3.575,0.694,7.07,0.448,10.347-1.237c1.654-0.852,3.297-1.932,3.255-4.074
		c-0.041-2.062-1.661-3.061-3.267-3.928c-1.811-0.979-2.371-1.887-1.755-3.012c0.607-1.113,1.748-1.175,3.539-0.273
		C43.279,40.232,45.012,42.23,46,44.9c0,0.808,0,1.615,0,2.424c-1.151,4.026-4.137,6.07-7.882,7.292
		c-2.856,0.933-5.802,1.152-8.744,0.743C24.334,54.656,19.96,52.86,18,47.594C18,46.695,18,45.798,18,44.9z"/>
	<path opacity="0.8" fill="#EC5C55" d="M30.161,43.406c0.024,0.637,0.353,1.453,0.824,1.827c0.412,0.326,1.439,0.416,1.812,0.123
		c0.54-0.427,1.021-1.285,1.032-1.968c0.085-4.973,0.066-9.947,0.027-14.922c-0.007-0.852,0.225-1.204,1.077-1.486
		c4.772-1.574,7.492-6.417,6.36-11.15c-1.077-4.5-5.082-7.568-9.633-7.378c-4.562,0.19-8.389,3.534-9.059,7.913
		c-0.718,4.704,1.854,9.074,6.358,10.562c0.985,0.324,1.199,0.768,1.18,1.691c-0.052,2.42-0.018,4.84-0.018,7.26
		C30.124,38.389,30.07,40.9,30.161,43.406z"/>
</g>
</svg>
