<?xml version="1.0" encoding="utf-8"?>
<!-- Generator: Adobe Illustrator 16.0.0, SVG Export Plug-In . SVG Version: 6.00 Build 0)  -->
<!DOCTYPE svg PUBLIC "-//W3C//DTD SVG 1.1//EN" "http://www.w3.org/Graphics/SVG/1.1/DTD/svg11.dtd">
<svg version="1.1" id="Layer_1"
	xmlns="http://www.w3.org/2000/svg"
	xmlns:xlink="http://www.w3.org/1999/xlink" x="0px" y="0px" width="64px" height="64px" viewBox="0 0 64 64" enable-background="new 0 0 64 64" xml:space="preserve">
	<g>
		<g>
			<path class="path--color1" fill-rule="evenodd" clip-rule="evenodd" d="M40.936,44.852c1.171,0,2.279,0.003,3.387,0
			c1.879-0.004,2.518-0.645,2.523-2.565c0.008-2.642,0.003-5.284,0.003-7.925c0-4.838,0.002-9.674-0.003-14.512
			c-0.002-2.082-0.653-2.725-2.746-2.727c-7.479-0.002-14.957-0.002-22.436,0c-2.059,0.002-2.686,0.621-2.688,2.639
			c-0.001,1.072,0,2.143,0,3.285c-1.341,0-2.586,0-4.112,0c0.128-1.933,0.024-3.887,0.438-5.726
			c0.565-2.522,2.863-4.138,5.693-4.159c7.925-0.061,15.85-0.07,23.774,0c3.433,0.029,5.661,2.256,6.003,5.676
			c0.034,0.334,0.051,0.669,0.051,1.002c0.004,7.517,0.014,15.033-0.003,22.549c-0.007,3.527-2.213,6.196-5.36,6.424
			c-1.476,0.107-2.966,0.019-4.523,0.019C40.936,47.526,40.936,46.279,40.936,44.852z"/>
			<path class="path--color2" fill-rule="evenodd" clip-rule="evenodd" d="M36.383,48.143
			c0.729-0.765,0.725-1.77-0.019-2.531c-2.228-2.282-4.52-4.502-6.671-6.633c-0.95,0.902-1.877,1.783-2.967,2.816
			c1.017,0.98,2.022,1.951,3.107,2.999c-0.279,0.022-0.483,0.056-0.689,0.056c-2.679,0.004-5.357,0.012-8.037-0.002
			c-1.389-0.006-2.112-0.725-2.125-2.14c-0.021-2.344-0.007-4.688-0.007-7.032c0-0.531,0-1.064,0-1.597
			c0.11-0.052,0.222-0.104,0.332-0.157c0.974,1.052,1.947,2.103,2.927,3.161c0.98-0.986,1.861-1.872,2.729-2.746
			c-2.219-2.257-4.391-4.546-6.656-6.738c-0.897-0.868-2.046-0.664-3.072,0.35c-1.88,1.855-3.743,3.729-5.609,5.599
			c-0.25,0.25-0.481,0.521-0.532,0.576c0.935,1.018,1.782,1.939,2.907,3.162c0.942-1.085,1.879-2.162,2.973-3.424
			c0,3.182-0.028,6.078,0.008,8.975c0.045,3.518,2.597,5.998,6.117,6.004c2.604,0.006,5.209,0,7.812,0.004
			c0.307,0.002,0.615,0.044,0.921,0.066c0.065,0.107,0.13,0.216,0.195,0.323c-1.073,0.963-2.147,1.927-3.22,2.89
			c0.965,0.982,1.844,1.875,2.82,2.867C31.903,52.691,34.178,50.45,36.383,48.143z"/>
		</g>
	</g>
</svg>
